<svg width="390" height="207" viewBox="0 0 390 207" fill="none" xmlns="http://www.w3.org/2000/svg">
<path d="M46 108.483C46 112.042 49.7394 139.802 61.7056 143.361L57.2183 114.177V92.8229L61.7056 71.4687L69.9323 54.3854L82.6463 38.7257L102.839 33.743L128.267 38.7257L152.947 46.5555L179.123 54.3854L215.77 67.9097L249.424 82.1458L226.988 64.3507L197.82 46.5555L172.392 33.743L146.216 24.4896L108.822 17.3715H82.6463L69.9323 24.4896L57.2183 38.7257L50.4873 57.9444L46 82.1458V108.483Z" fill="#448DE2" stroke="#F9F9F9" stroke-width="2"/>
<path d="M185.106 1H152.947L170.897 5.98264L201.56 15.2361L225.492 23.066L245.685 32.3194L265.13 42.2847L280.088 52.25L295.793 63.6389V75.0278L291.306 82.1458L271.861 98.5174L245.685 112.042L225.492 121.295L199.316 129.125L152.947 137.667H185.106H218.761L243.441 132.684L262.886 124.854L280.088 114.889L295.793 107.771L309.255 98.5174L318.23 92.8229L324.961 82.1458V68.6215L318.23 56.5208L309.255 45.1319L295.793 36.5903L280.088 27.3368L262.886 19.5069L243.441 12.3889L218.761 5.98264L185.106 1Z" fill="#292052" stroke="#F9F9F9" stroke-width="2"/>
<path d="M99.0997 80.0104C103.088 76.4514 112.262 68.4792 117.049 65.0625L108.822 87.8403V118.448V142.649L112.562 164.715L117.049 181.087L133.502 185.358H155.939L184.358 181.087L211.282 173.257C218.761 170.884 234.766 165.854 238.954 164.715C243.142 163.576 259.147 156.648 266.626 153.326L295.793 138.378L286.071 153.326L255.407 173.257L221.753 189.628L184.358 201.017L147.712 206H129.015L112.562 201.017L102.839 189.628L92.3687 173.257L87.8814 149.056V124.142L92.3687 98.5174L99.0997 80.0104Z" fill="#01FDFD" stroke="#F9F9F9" stroke-width="2"/>
<path d="M39.5508 118.99C38.4766 119.459 37.5 119.898 36.6211 120.308C35.7617 120.718 34.6289 121.148 33.2227 121.597C32.0312 121.968 30.7324 122.281 29.3262 122.535C27.9395 122.808 26.4062 122.945 24.7266 122.945C21.5625 122.945 18.6816 122.505 16.084 121.627C13.5059 120.728 11.2598 119.332 9.3457 117.437C7.4707 115.582 6.00586 113.228 4.95117 110.377C3.89648 107.505 3.36914 104.175 3.36914 100.386C3.36914 96.7925 3.87695 93.5797 4.89258 90.7476C5.9082 87.9156 7.37305 85.523 9.28711 83.5699C11.1426 81.6754 13.3789 80.23 15.9961 79.2339C18.6328 78.2379 21.5527 77.7398 24.7559 77.7398C27.0996 77.7398 29.4336 78.023 31.7578 78.5894C34.1016 79.1558 36.6992 80.1519 39.5508 81.5777V88.4625H39.1113C36.709 86.4507 34.3262 84.9859 31.9629 84.0679C29.5996 83.15 27.0703 82.691 24.375 82.691C22.168 82.691 20.1758 83.0523 18.3984 83.775C16.6406 84.4781 15.0684 85.5816 13.6816 87.0855C12.334 88.5504 11.2793 90.4058 10.5176 92.6519C9.77539 94.8785 9.4043 97.4566 9.4043 100.386C9.4043 103.453 9.81445 106.089 10.6348 108.296C11.4746 110.503 12.5488 112.3 13.8574 113.687C15.2246 115.132 16.8164 116.207 18.6328 116.91C20.4688 117.593 22.4023 117.935 24.4336 117.935C27.2266 117.935 29.8438 117.457 32.2852 116.5C34.7266 115.543 37.0117 114.107 39.1406 112.193H39.5508V118.99ZM79.4941 122.154H50.7539V78.5308H79.4941V83.6871H56.5547V95.6402H79.4941V100.796H56.5547V116.998H79.4941V122.154ZM125.004 122.154H117.826L97.1426 83.1304V122.154H91.7227V78.5308H100.717L119.584 114.156V78.5308H125.004V122.154ZM170.719 83.6871H155.133V122.154H149.332V83.6871H133.746V78.5308H170.719V83.6871ZM215.672 122.154H208.143L193.553 104.81H185.379V122.154H179.578V78.5308H191.795C194.432 78.5308 196.629 78.7066 198.387 79.0582C200.145 79.3902 201.727 79.9957 203.133 80.8746C204.715 81.8707 205.945 83.1304 206.824 84.6539C207.723 86.1578 208.172 88.0718 208.172 90.3961C208.172 93.5406 207.381 96.1773 205.799 98.3062C204.217 100.416 202.039 102.007 199.266 103.082L215.672 122.154ZM202.107 90.8062C202.107 89.5562 201.883 88.4527 201.434 87.4957C201.004 86.5191 200.281 85.6988 199.266 85.0347C198.426 84.4683 197.43 84.0777 196.277 83.8629C195.125 83.6285 193.768 83.5113 192.205 83.5113H185.379V99.9761H191.238C193.074 99.9761 194.676 99.8199 196.043 99.5074C197.41 99.1754 198.572 98.5699 199.529 97.691C200.408 96.8707 201.053 95.9332 201.463 94.8785C201.893 93.8043 202.107 92.4468 202.107 90.8062ZM258.691 122.154H252.51L248.232 109.996H229.365L225.088 122.154H219.199L235.078 78.5308H242.812L258.691 122.154ZM246.445 105.015L238.799 83.5992L231.123 105.015H246.445ZM295.91 122.154H268.312V78.5308H274.113V116.998H295.91V122.154ZM333.451 122.154H304.711V78.5308H333.451V83.6871H310.512V95.6402H333.451V100.796H310.512V116.998H333.451V122.154ZM377.379 109.703C377.379 111.402 376.979 113.082 376.178 114.742C375.396 116.402 374.293 117.808 372.867 118.961C371.305 120.211 369.479 121.187 367.389 121.89C365.318 122.593 362.818 122.945 359.889 122.945C356.744 122.945 353.912 122.652 351.393 122.066C348.893 121.48 346.344 120.611 343.746 119.459V112.193H344.156C346.363 114.029 348.912 115.445 351.803 116.441C354.693 117.437 357.408 117.935 359.947 117.935C363.541 117.935 366.334 117.261 368.326 115.914C370.338 114.566 371.344 112.769 371.344 110.523C371.344 108.589 370.865 107.164 369.908 106.246C368.971 105.328 367.535 104.615 365.602 104.107C364.137 103.716 362.545 103.394 360.826 103.14C359.127 102.886 357.32 102.564 355.406 102.173C351.539 101.353 348.668 99.9566 346.793 97.9839C344.938 95.9918 344.01 93.4039 344.01 90.2203C344.01 86.5679 345.553 83.5797 348.639 81.2554C351.725 78.9117 355.641 77.7398 360.387 77.7398C363.453 77.7398 366.266 78.0328 368.824 78.6187C371.383 79.2047 373.648 79.9273 375.621 80.7867V87.6422H375.211C373.551 86.2359 371.363 85.0738 368.648 84.1558C365.953 83.2183 363.189 82.7496 360.357 82.7496C357.252 82.7496 354.752 83.3941 352.857 84.6832C350.982 85.9722 350.045 87.6324 350.045 89.6636C350.045 91.48 350.514 92.9058 351.451 93.941C352.389 94.9761 354.039 95.7672 356.402 96.314C357.652 96.5875 359.43 96.9195 361.734 97.3101C364.039 97.7007 365.992 98.1011 367.594 98.5113C370.836 99.3707 373.277 100.669 374.918 102.408C376.559 104.146 377.379 106.578 377.379 109.703Z" fill="#F9F9F9"/>
<path d="M39.5508 118.99L40.3507 120.823L41.5508 120.299V118.99H39.5508ZM36.6211 120.308L35.7753 118.496L35.7675 118.499L35.7596 118.503L36.6211 120.308ZM33.2227 121.597L33.8174 123.507L33.8243 123.505L33.8312 123.502L33.2227 121.597ZM29.3262 122.535L28.9708 120.567L28.955 120.569L28.9393 120.573L29.3262 122.535ZM16.084 121.627L15.4258 123.515L15.4344 123.518L15.443 123.521L16.084 121.627ZM9.3457 117.437L10.7526 116.016L10.7525 116.015L9.3457 117.437ZM4.95117 110.377L3.07383 111.066L3.07536 111.07L4.95117 110.377ZM9.28711 83.5699L10.7155 84.9697L10.716 84.9693L9.28711 83.5699ZM15.9961 79.2339L15.2893 77.363L15.2847 77.3648L15.9961 79.2339ZM31.7578 78.5894L31.2843 80.5326L31.288 80.5335L31.7578 78.5894ZM39.5508 81.5777H41.5508V80.3416L40.4452 79.7888L39.5508 81.5777ZM39.5508 88.4625V90.4625H41.5508V88.4625H39.5508ZM39.1113 88.4625L37.8273 89.9958L38.3845 90.4625H39.1113V88.4625ZM18.3984 83.775L19.1412 85.6319L19.1517 85.6277L18.3984 83.775ZM13.6816 87.0855L12.2113 85.7297L12.2098 85.7314L13.6816 87.0855ZM10.5176 92.6519L8.62351 92.0096L8.62021 92.0195L10.5176 92.6519ZM10.6348 108.296L8.76007 108.993L8.76277 109.001L8.76553 109.008L10.6348 108.296ZM13.8574 113.687L12.4028 115.06L12.4045 115.061L13.8574 113.687ZM18.6328 116.91L17.9108 118.775L17.9229 118.78L17.9349 118.784L18.6328 116.91ZM39.1406 112.193V110.193H38.3737L37.8034 110.706L39.1406 112.193ZM39.5508 112.193H41.5508V110.193H39.5508V112.193ZM38.7509 117.157C37.6643 117.631 36.6722 118.077 35.7753 118.496L37.4669 122.121C38.3278 121.719 39.2888 121.286 40.3507 120.823L38.7509 117.157ZM35.7596 118.503C35.0138 118.859 33.9753 119.257 32.6141 119.692L33.8312 123.502C35.2825 123.039 36.5096 122.577 37.4826 122.113L35.7596 118.503ZM32.6279 119.688C31.5253 120.031 30.3075 120.325 28.9708 120.567L29.6815 124.503C31.1574 124.236 32.5372 123.906 33.8174 123.507L32.6279 119.688ZM28.9393 120.573C27.7011 120.817 26.2998 120.945 24.7266 120.945V124.945C26.5127 124.945 28.1778 124.8 29.7131 124.497L28.9393 120.573ZM24.7266 120.945C21.7476 120.945 19.0871 120.531 16.725 119.732L15.443 123.521C18.2761 124.48 21.3774 124.945 24.7266 124.945V120.945ZM16.7421 119.738C14.4413 118.936 12.452 117.698 10.7526 116.016L7.93876 118.859C10.0675 120.966 12.5704 122.52 15.4258 123.515L16.7421 119.738ZM10.7525 116.015C9.11453 114.395 7.79576 112.302 6.82698 109.683L3.07536 111.07C4.21596 114.154 5.82688 116.769 7.93891 118.859L10.7525 116.015ZM6.82851 109.687C5.87173 107.082 5.36914 103.994 5.36914 100.386H1.36914C1.36914 104.357 1.92124 107.929 3.07383 111.066L6.82851 109.687ZM5.36914 100.386C5.36914 96.9791 5.85069 94.0007 6.77518 91.4228L3.00998 90.0725C1.90321 93.1586 1.36914 96.606 1.36914 100.386H5.36914ZM6.77518 91.4228C7.70329 88.8348 9.02282 86.697 10.7155 84.9697L7.85868 82.17C5.72327 84.349 4.11312 86.9964 3.00998 90.0725L6.77518 91.4228ZM10.716 84.9693C12.3578 83.2929 14.3452 82.0022 16.7075 81.1031L15.2847 77.3648C12.4127 78.4578 9.92735 80.0578 7.85824 82.1705L10.716 84.9693ZM16.7029 81.1049C19.0851 80.2049 21.7616 79.7398 24.7559 79.7398V75.7398C21.3439 75.7398 18.1805 76.2708 15.2893 77.363L16.7029 81.1049ZM24.7559 79.7398C26.9368 79.7398 29.1118 80.0031 31.2843 80.5325L32.2313 76.6463C29.7553 76.0429 27.2624 75.7398 24.7559 75.7398V79.7398ZM31.288 80.5335C33.4465 81.0551 35.8995 81.9881 38.6564 83.3666L40.4452 79.7888C37.4989 78.3157 34.7566 77.2566 32.2276 76.6454L31.288 80.5335ZM37.5508 81.5777V88.4625H41.5508V81.5777H37.5508ZM39.5508 86.4625H39.1113V90.4625H39.5508V86.4625ZM40.3954 86.9291C37.8636 84.809 35.2952 83.2167 32.687 82.2036L31.2387 85.9322C33.3571 86.7551 35.5543 88.0925 37.8273 89.9958L40.3954 86.9291ZM32.687 82.2036C30.0786 81.1904 27.3022 80.691 24.375 80.691V84.691C26.8384 84.691 29.1206 85.1095 31.2387 85.9322L32.687 82.2036ZM24.375 80.691C21.9481 80.691 19.6949 81.0888 17.6451 81.9223L19.1517 85.6277C20.6566 85.0158 22.3878 84.691 24.375 84.691V80.691ZM17.6557 81.918C15.5992 82.7406 13.7836 84.0246 12.2113 85.7297L15.152 88.4413C16.3531 87.1386 17.6821 86.2156 19.1412 85.6319L17.6557 81.918ZM12.2098 85.7314C10.6407 87.4369 9.45793 89.5492 8.62353 92.0096L12.4116 93.2942C13.1007 91.2625 14.0273 89.6638 15.1535 88.4396L12.2098 85.7314ZM8.62021 92.0195C7.79559 94.4933 7.4043 97.2927 7.4043 100.386H11.4043C11.4043 97.6205 11.7552 95.2636 12.4149 93.2844L8.62021 92.0195ZM7.4043 100.386C7.4043 103.622 7.83606 106.507 8.76007 108.993L12.5095 107.6C11.7928 105.672 11.4043 103.283 11.4043 100.386H7.4043ZM8.76553 109.008C9.67722 111.404 10.8765 113.442 12.4028 115.06L15.312 112.314C14.2212 111.158 13.272 109.603 12.504 107.585L8.76553 109.008ZM12.4045 115.061C13.9713 116.718 15.8113 117.962 17.9108 118.775L19.3548 115.045C17.8215 114.451 16.4779 113.547 15.3104 112.313L12.4045 115.061ZM17.9349 118.784C20.0024 119.554 22.173 119.935 24.4336 119.935V115.935C22.6317 115.935 20.9351 115.633 19.3307 115.035L17.9349 118.784ZM24.4336 119.935C27.4599 119.935 30.3263 119.416 33.0151 118.362L31.5552 114.638C29.3612 115.498 26.9932 115.935 24.4336 115.935V119.935ZM33.0151 118.362C35.6994 117.309 38.187 115.74 40.4778 113.68L37.8034 110.706C35.8365 112.474 33.7538 113.776 31.5552 114.638L33.0151 118.362ZM39.1406 114.193H39.5508V110.193H39.1406V114.193ZM37.5508 112.193V118.99H41.5508V112.193H37.5508ZM79.4941 122.154V124.154H81.4941V122.154H79.4941ZM50.7539 122.154H48.7539V124.154H50.7539V122.154ZM50.7539 78.5308V76.5308H48.7539V78.5308H50.7539ZM79.4941 78.5308H81.4941V76.5308H79.4941V78.5308ZM79.4941 83.6871V85.6871H81.4941V83.6871H79.4941ZM56.5547 83.6871V81.6871H54.5547V83.6871H56.5547ZM56.5547 95.6402H54.5547V97.6402H56.5547V95.6402ZM79.4941 95.6402H81.4941V93.6402H79.4941V95.6402ZM79.4941 100.796V102.796H81.4941V100.796H79.4941ZM56.5547 100.796V98.7964H54.5547V100.796H56.5547ZM56.5547 116.998H54.5547V118.998H56.5547V116.998ZM79.4941 116.998H81.4941V114.998H79.4941V116.998ZM79.4941 120.154H50.7539V124.154H79.4941V120.154ZM52.7539 122.154V78.5308H48.7539V122.154H52.7539ZM50.7539 80.5308H79.4941V76.5308H50.7539V80.5308ZM77.4941 78.5308V83.6871H81.4941V78.5308H77.4941ZM79.4941 81.6871H56.5547V85.6871H79.4941V81.6871ZM54.5547 83.6871V95.6402H58.5547V83.6871H54.5547ZM56.5547 97.6402H79.4941V93.6402H56.5547V97.6402ZM77.4941 95.6402V100.796H81.4941V95.6402H77.4941ZM79.4941 98.7964H56.5547V102.796H79.4941V98.7964ZM54.5547 100.796V116.998H58.5547V100.796H54.5547ZM56.5547 118.998H79.4941V114.998H56.5547V118.998ZM77.4941 116.998V122.154H81.4941V116.998H77.4941ZM125.004 122.154V124.154H127.004V122.154H125.004ZM117.826 122.154L116.059 123.09L116.623 124.154H117.826V122.154ZM97.1426 83.1304L98.9097 82.1938L95.1426 83.1304H97.1426ZM97.1426 122.154V124.154H99.1426V122.154H97.1426ZM91.7227 122.154H89.7227V124.154H91.7227V122.154ZM91.7227 78.5308V76.5308H89.7227V78.5308H91.7227ZM100.717 78.5308L102.484 77.5948L101.921 76.5308H100.717V78.5308ZM119.584 114.156L117.817 115.092L121.584 114.156H119.584ZM119.584 78.5308V76.5308H117.584V78.5308H119.584ZM125.004 78.5308H127.004V76.5308H125.004V78.5308ZM125.004 120.154H117.826V124.154H125.004V120.154ZM119.593 121.217L98.9097 82.1938L95.3755 84.0671L116.059 123.09L119.593 121.217ZM95.1426 83.1304V122.154H99.1426V83.1304H95.1426ZM97.1426 120.154H91.7227V124.154H97.1426V120.154ZM93.7227 122.154V78.5308H89.7227V122.154H93.7227ZM91.7227 80.5308H100.717V76.5308H91.7227V80.5308ZM98.9494 79.4669L117.817 115.092L121.351 113.22L102.484 77.5948L98.9494 79.4669ZM121.584 114.156V78.5308H117.584V114.156H121.584ZM119.584 80.5308H125.004V76.5308H119.584V80.5308ZM123.004 78.5308V122.154H127.004V78.5308H123.004ZM170.719 83.6871V85.6871H172.719V83.6871H170.719ZM155.133 83.6871V81.6871H153.133V83.6871H155.133ZM155.133 122.154V124.154H157.133V122.154H155.133ZM149.332 122.154H147.332V124.154H149.332V122.154ZM149.332 83.6871H151.332V81.6871H149.332V83.6871ZM133.746 83.6871H131.746V85.6871H133.746V83.6871ZM133.746 78.5308V76.5308H131.746V78.5308H133.746ZM170.719 78.5308H172.719V76.5308H170.719V78.5308ZM170.719 81.6871H155.133V85.6871H170.719V81.6871ZM153.133 83.6871V122.154H157.133V83.6871H153.133ZM155.133 120.154H149.332V124.154H155.133V120.154ZM151.332 122.154V83.6871H147.332V122.154H151.332ZM149.332 81.6871H133.746V85.6871H149.332V81.6871ZM135.746 83.6871V78.5308H131.746V83.6871H135.746ZM133.746 80.5308H170.719V76.5308H133.746V80.5308ZM168.719 78.5308V83.6871H172.719V78.5308H168.719ZM215.672 122.154V124.154H220.03L217.188 120.85L215.672 122.154ZM208.143 122.154L206.612 123.441L207.211 124.154H208.143V122.154ZM193.553 104.81L195.083 103.523L194.484 102.81H193.553V104.81ZM185.379 104.81V102.81H183.379V104.81H185.379ZM185.379 122.154V124.154H187.379V122.154H185.379ZM179.578 122.154H177.578V124.154H179.578V122.154ZM179.578 78.5308V76.5308H177.578V78.5308H179.578ZM198.387 79.0582L197.994 81.0193L198.005 81.0214L198.016 81.0234L198.387 79.0582ZM203.133 80.8746L204.198 79.1821L204.193 79.1786L203.133 80.8746ZM206.824 84.6539L205.092 85.6533L205.099 85.6665L205.107 85.6796L206.824 84.6539ZM205.799 98.3062L207.399 99.5062L207.404 99.4991L205.799 98.3062ZM199.266 103.082L198.543 101.217L195.903 102.239L197.749 104.386L199.266 103.082ZM201.434 87.4957L199.603 88.3011L199.613 88.3234L199.623 88.3455L201.434 87.4957ZM199.266 85.0347L198.147 86.6929L198.159 86.7009L198.171 86.7087L199.266 85.0347ZM196.277 83.8629L195.879 85.8227L195.895 85.826L195.911 85.829L196.277 83.8629ZM185.379 83.5113V81.5113H183.379V83.5113H185.379ZM185.379 99.9761H183.379V101.976H185.379V99.9761ZM196.043 99.5074L196.489 101.457L196.502 101.454L196.515 101.451L196.043 99.5074ZM199.529 97.691L200.882 99.164L200.888 99.1586L200.894 99.1531L199.529 97.691ZM201.463 94.8785L199.606 94.1357L199.602 94.1446L199.599 94.1536L201.463 94.8785ZM215.672 120.154H208.143V124.154H215.672V120.154ZM209.673 120.866L195.083 103.523L192.022 106.098L206.612 123.441L209.673 120.866ZM193.553 102.81H185.379V106.81H193.553V102.81ZM183.379 104.81V122.154H187.379V104.81H183.379ZM185.379 120.154H179.578V124.154H185.379V120.154ZM181.578 122.154V78.5308H177.578V122.154H181.578ZM179.578 80.5308H191.795V76.5308H179.578V80.5308ZM191.795 80.5308C194.355 80.5308 196.411 80.7026 197.994 81.0193L198.779 77.097C196.847 76.7106 194.508 76.5308 191.795 76.5308V80.5308ZM198.016 81.0234C199.548 81.313 200.894 81.8335 202.073 82.5706L204.193 79.1786C202.56 78.1578 200.741 77.4674 198.758 77.0929L198.016 81.0234ZM202.067 82.567C203.392 83.401 204.386 84.4294 205.092 85.6533L208.557 83.6544C207.505 81.8315 206.038 80.3403 204.198 79.1821L202.067 82.567ZM205.107 85.6796C205.769 86.7879 206.172 88.3184 206.172 90.3961H210.172C210.172 87.8253 209.676 85.5276 208.541 83.6282L205.107 85.6796ZM206.172 90.3961C206.172 93.1931 205.474 95.3899 204.194 97.1133L207.404 99.4991C209.288 96.9647 210.172 93.8881 210.172 90.3961H206.172ZM204.199 97.1062C202.869 98.8791 201.014 100.26 198.543 101.217L199.988 104.947C203.065 103.755 205.564 101.952 207.399 99.5062L204.199 97.1062ZM197.749 104.386L214.156 123.458L217.188 120.85L200.782 101.777L197.749 104.386ZM204.107 90.8062C204.107 89.3155 203.839 87.913 203.244 86.6459L199.623 88.3455C199.927 88.9924 200.107 89.7969 200.107 90.8062H204.107ZM203.264 86.6902C202.658 85.3119 201.654 84.2069 200.36 83.3608L198.171 86.7087C198.908 87.1906 199.35 87.7263 199.603 88.3011L203.264 86.6902ZM200.384 83.3766C199.284 82.635 198.023 82.1539 196.644 81.8967L195.911 85.829C196.836 86.0015 197.567 86.3016 198.147 86.6929L200.384 83.3766ZM196.676 81.903C195.358 81.6349 193.861 81.5113 192.205 81.5113V85.5113C193.674 85.5113 194.892 85.6221 195.879 85.8227L196.676 81.903ZM192.205 81.5113H185.379V85.5113H192.205V81.5113ZM183.379 83.5113V99.9761H187.379V83.5113H183.379ZM185.379 101.976H191.238V97.9761H185.379V101.976ZM191.238 101.976C193.181 101.976 194.938 101.811 196.489 101.457L195.597 97.5577C194.413 97.8283 192.967 97.9761 191.238 97.9761V101.976ZM196.515 101.451C198.183 101.046 199.656 100.29 200.882 99.164L198.176 96.2179C197.489 96.8494 196.637 97.3049 195.571 97.5639L196.515 101.451ZM200.894 99.1531C201.979 98.1408 202.801 96.9555 203.327 95.6034L199.599 94.1536C199.304 94.9108 198.838 95.6006 198.165 96.2289L200.894 99.1531ZM203.32 95.6213C203.875 94.2341 204.107 92.6031 204.107 90.8062H200.107C200.107 92.2906 199.91 93.3744 199.606 94.1357L203.32 95.6213ZM258.691 122.154V124.154H261.548L260.571 121.47L258.691 122.154ZM252.51 122.154L250.623 122.818L251.093 124.154H252.51V122.154ZM248.232 109.996L250.119 109.332L249.649 107.996H248.232V109.996ZM229.365 109.996V107.996H227.949L227.479 109.332L229.365 109.996ZM225.088 122.154V124.154H226.504L226.975 122.818L225.088 122.154ZM219.199 122.154L217.32 121.47L216.343 124.154H219.199V122.154ZM235.078 78.5308V76.5308H233.678L233.199 77.8467L235.078 78.5308ZM242.812 78.5308L244.692 77.8467L244.213 76.5308H242.812V78.5308ZM246.445 105.015V107.015H249.283L248.329 104.343L246.445 105.015ZM238.799 83.5992L240.682 82.9267L238.802 77.6614L236.916 82.9244L238.799 83.5992ZM231.123 105.015L229.24 104.34L228.282 107.015H231.123V105.015ZM258.691 120.154H252.51V124.154H258.691V120.154ZM254.396 121.49L250.119 109.332L246.346 110.659L250.623 122.818L254.396 121.49ZM248.232 107.996H229.365V111.996H248.232V107.996ZM227.479 109.332L223.201 121.49L226.975 122.818L231.252 110.659L227.479 109.332ZM225.088 120.154H219.199V124.154H225.088V120.154ZM221.079 122.838L236.957 79.2149L233.199 77.8467L217.32 121.47L221.079 122.838ZM235.078 80.5308H242.812V76.5308H235.078V80.5308ZM240.933 79.2149L256.812 122.838L260.571 121.47L244.692 77.8467L240.933 79.2149ZM248.329 104.343L240.682 82.9267L236.915 84.2717L244.562 105.688L248.329 104.343ZM236.916 82.9244L229.24 104.34L233.006 105.69L240.682 84.274L236.916 82.9244ZM231.123 107.015H246.445V103.015H231.123V107.015ZM295.91 122.154V124.154H297.91V122.154H295.91ZM268.312 122.154H266.312V124.154H268.312V122.154ZM268.312 78.5308V76.5308H266.312V78.5308H268.312ZM274.113 78.5308H276.113V76.5308H274.113V78.5308ZM274.113 116.998H272.113V118.998H274.113V116.998ZM295.91 116.998H297.91V114.998H295.91V116.998ZM295.91 120.154H268.312V124.154H295.91V120.154ZM270.312 122.154V78.5308H266.312V122.154H270.312ZM268.312 80.5308H274.113V76.5308H268.312V80.5308ZM272.113 78.5308V116.998H276.113V78.5308H272.113ZM274.113 118.998H295.91V114.998H274.113V118.998ZM293.91 116.998V122.154H297.91V116.998H293.91ZM333.451 122.154V124.154H335.451V122.154H333.451ZM304.711 122.154H302.711V124.154H304.711V122.154ZM304.711 78.5308V76.5308H302.711V78.5308H304.711ZM333.451 78.5308H335.451V76.5308H333.451V78.5308ZM333.451 83.6871V85.6871H335.451V83.6871H333.451ZM310.512 83.6871V81.6871H308.512V83.6871H310.512ZM310.512 95.6402H308.512V97.6402H310.512V95.6402ZM333.451 95.6402H335.451V93.6402H333.451V95.6402ZM333.451 100.796V102.796H335.451V100.796H333.451ZM310.512 100.796V98.7964H308.512V100.796H310.512ZM310.512 116.998H308.512V118.998H310.512V116.998ZM333.451 116.998H335.451V114.998H333.451V116.998ZM333.451 120.154H304.711V124.154H333.451V120.154ZM306.711 122.154V78.5308H302.711V122.154H306.711ZM304.711 80.5308H333.451V76.5308H304.711V80.5308ZM331.451 78.5308V83.6871H335.451V78.5308H331.451ZM333.451 81.6871H310.512V85.6871H333.451V81.6871ZM308.512 83.6871V95.6402H312.512V83.6871H308.512ZM310.512 97.6402H333.451V93.6402H310.512V97.6402ZM331.451 95.6402V100.796H335.451V95.6402H331.451ZM333.451 98.7964H310.512V102.796H333.451V98.7964ZM308.512 100.796V116.998H312.512V100.796H308.512ZM310.512 118.998H333.451V114.998H310.512V118.998ZM331.451 116.998V122.154H335.451V116.998H331.451ZM376.178 114.742L374.376 113.873L374.372 113.881L374.368 113.89L376.178 114.742ZM372.867 118.961L374.117 120.522L374.124 120.516L372.867 118.961ZM367.389 121.89L366.751 119.995L366.746 119.996L367.389 121.89ZM351.393 122.066L350.936 124.013L350.94 124.014L351.393 122.066ZM343.746 119.459H341.746V120.759L342.935 121.287L343.746 119.459ZM343.746 112.193V110.193H341.746V112.193H343.746ZM344.156 112.193L345.435 110.655L344.879 110.193H344.156V112.193ZM368.326 115.914L367.213 114.252L367.206 114.257L368.326 115.914ZM369.908 106.246L368.509 107.675L368.516 107.682L368.524 107.689L369.908 106.246ZM365.602 104.107L365.086 106.039L365.094 106.041L365.602 104.107ZM360.826 103.14L360.531 105.118L360.534 105.119L360.826 103.14ZM355.406 102.173L354.991 104.13L354.999 104.131L355.006 104.133L355.406 102.173ZM346.793 97.9839L345.329 99.347L345.336 99.3545L345.343 99.3618L346.793 97.9839ZM348.639 81.2554L349.842 82.853L349.848 82.8481L348.639 81.2554ZM375.621 80.7867H377.621V79.4764L376.42 78.9531L375.621 80.7867ZM375.621 87.6422V89.6422H377.621V87.6422H375.621ZM375.211 87.6422L373.918 89.1682L374.478 89.6422H375.211V87.6422ZM368.648 84.1558L367.991 86.0448L368 86.0477L368.008 86.0504L368.648 84.1558ZM352.857 84.6832L351.732 83.0296L351.724 83.0351L352.857 84.6832ZM356.402 96.314L355.951 98.2625L355.963 98.2653L355.975 98.2678L356.402 96.314ZM367.594 98.5113L368.106 96.5781L368.098 96.5759L368.09 96.5738L367.594 98.5113ZM375.379 109.703C375.379 111.076 375.058 112.46 374.376 113.873L377.979 115.611C378.899 113.703 379.379 111.728 379.379 109.703H375.379ZM374.368 113.89C373.715 115.277 372.801 116.443 371.61 117.405L374.124 120.516C375.785 119.174 377.078 117.527 377.987 115.593L374.368 113.89ZM371.618 117.399C370.256 118.488 368.641 119.359 366.751 119.995L368.026 123.786C370.316 123.016 372.354 121.933 374.117 120.522L371.618 117.399ZM366.746 119.996C364.939 120.61 362.669 120.945 359.889 120.945V124.945C362.968 124.945 365.697 124.577 368.032 123.784L366.746 119.996ZM359.889 120.945C356.865 120.945 354.189 120.663 351.846 120.118L350.94 124.014C353.635 124.641 356.623 124.945 359.889 124.945V120.945ZM351.849 120.119C349.483 119.564 347.052 118.737 344.557 117.63L342.935 121.287C345.635 122.484 348.302 123.396 350.936 124.013L351.849 120.119ZM345.746 119.459V112.193H341.746V119.459H345.746ZM343.746 114.193H344.156V110.193H343.746V114.193ZM342.877 113.73C345.282 115.731 348.047 117.262 351.151 118.332L352.454 114.55C349.777 113.628 347.444 112.327 345.435 110.655L342.877 113.73ZM351.151 118.332C354.21 119.386 357.146 119.935 359.947 119.935V115.935C357.67 115.935 355.177 115.488 352.454 114.55L351.151 118.332ZM359.947 119.935C363.755 119.935 366.998 119.227 369.447 117.57L367.206 114.257C365.67 115.296 363.327 115.935 359.947 115.935V119.935ZM369.439 117.575C371.954 115.891 373.344 113.496 373.344 110.523H369.344C369.344 112.043 368.722 113.241 367.213 114.252L369.439 117.575ZM373.344 110.523C373.344 108.296 372.793 106.242 371.293 104.802L368.524 107.689C368.937 108.086 369.344 108.883 369.344 110.523H373.344ZM371.307 104.817C370.025 103.561 368.217 102.726 366.11 102.173L365.094 106.041C366.853 106.503 367.917 107.095 368.509 107.675L371.307 104.817ZM366.117 102.175C364.569 101.762 362.902 101.425 361.118 101.162L360.534 105.119C362.188 105.363 363.704 105.671 365.086 106.039L366.117 102.175ZM361.122 101.162C359.462 100.914 357.69 100.598 355.806 100.214L355.006 104.133C356.95 104.53 358.792 104.858 360.531 105.118L361.122 101.162ZM355.821 100.217C352.179 99.4443 349.739 98.1807 348.243 96.6061L345.343 99.3618C347.597 101.732 350.899 103.262 354.991 104.13L355.821 100.217ZM348.257 96.6208C346.803 95.0607 346.01 92.9895 346.01 90.2203H342.01C342.01 93.8183 343.072 96.9228 345.329 99.347L348.257 96.6208ZM346.01 90.2203C346.01 87.2371 347.224 84.8248 349.842 82.853L347.435 79.6579C343.882 82.3345 342.01 85.8987 342.01 90.2203H346.01ZM349.848 82.8481C352.514 80.8236 355.977 79.7398 360.387 79.7398V75.7398C355.304 75.7398 350.935 76.9998 347.429 79.6627L349.848 82.8481ZM360.387 79.7398C363.327 79.7398 365.988 80.0209 368.378 80.5682L369.271 76.6692C366.544 76.0447 363.579 75.7398 360.387 75.7398V79.7398ZM368.378 80.5682C370.841 81.1323 372.985 81.8197 374.822 82.6202L376.42 78.9531C374.312 78.0349 371.925 77.277 369.271 76.6692L368.378 80.5682ZM373.621 80.7867V87.6422H377.621V80.7867H373.621ZM375.621 85.6422H375.211V89.6422H375.621V85.6422ZM376.504 86.1161C374.601 84.5044 372.171 83.2356 369.289 82.2612L368.008 86.0504C370.556 86.912 372.501 87.9674 373.918 89.1682L376.504 86.1161ZM369.305 82.2668C366.401 81.2564 363.415 80.7496 360.357 80.7496V84.7496C362.964 84.7496 365.506 85.1802 367.991 86.0448L369.305 82.2668ZM360.357 80.7496C356.99 80.7496 354.058 81.4475 351.732 83.0296L353.983 86.3367C355.446 85.3407 357.514 84.7496 360.357 84.7496V80.7496ZM351.724 83.0351C349.383 84.6449 348.045 86.8865 348.045 89.6636H352.045C352.045 88.3782 352.582 87.2995 353.99 86.3313L351.724 83.0351ZM348.045 89.6636C348.045 91.8231 348.608 93.781 349.969 95.2835L352.934 92.5984C352.419 92.0307 352.045 91.137 352.045 89.6636H348.045ZM349.969 95.2835C351.317 96.772 353.45 97.6838 355.951 98.2625L356.853 94.3655C354.628 93.8505 353.461 93.1803 352.934 92.5984L349.969 95.2835ZM355.975 98.2678C357.271 98.5514 359.085 98.8896 361.4 99.282L362.069 95.3382C359.774 94.9494 358.033 94.6235 356.83 94.3602L355.975 98.2678ZM361.4 99.282C363.671 99.6668 365.566 100.057 367.098 100.449L368.09 96.5738C366.418 96.1457 364.407 95.7347 362.069 95.3382L361.4 99.282ZM367.081 100.445C370.102 101.245 372.162 102.401 373.464 103.781L376.372 101.035C374.393 98.9376 371.57 97.4961 368.106 96.5781L367.081 100.445ZM373.464 103.781C374.657 105.045 375.379 106.926 375.379 109.703H379.379C379.379 106.229 378.461 103.247 376.372 101.035L373.464 103.781Z" fill="#020202"/>
</svg>
