<svg width="213" height="208" viewBox="0 0 213 208" fill="none" xmlns="http://www.w3.org/2000/svg">
<path d="M210.5 104C210.5 160.001 163.994 205.5 106.5 205.5C49.0061 205.5 2.5 160.001 2.5 104C2.5 47.9987 49.0061 2.5 106.5 2.5C163.994 2.5 210.5 47.9987 210.5 104Z" fill="#FBF0F0" stroke="#FA0909" stroke-width="5"/>
<g filter="url(#filter0_d)">
<path d="M146.632 181H66.7767V147.245H79.0464V73.7549H62.6867V99.4005H36V40H177V99.4005H150.313V73.7549H134.056V147.245H146.632V181Z" fill="#FF0000"/>
<path d="M134.056 147.745H146.132V180.5H67.2767V147.745H79.0464H79.5464V147.245V73.7549V73.2549H79.0464H62.6867H62.1867V73.7549V98.9005H36.5V40.5H176.5V98.9005H150.813V73.7549V73.2549H150.313H134.056H133.556V73.7549V147.245V147.745H134.056Z" stroke="#C10000"/>
</g>
<defs>
<filter id="filter0_d" x="32" y="40" width="149" height="149" filterUnits="userSpaceOnUse" color-interpolation-filters="sRGB">
<feFlood flood-opacity="0" result="BackgroundImageFix"/>
<feColorMatrix in="SourceAlpha" type="matrix" values="0 0 0 0 0 0 0 0 0 0 0 0 0 0 0 0 0 0 127 0" result="hardAlpha"/>
<feOffset dy="4"/>
<feGaussianBlur stdDeviation="2"/>
<feComposite in2="hardAlpha" operator="out"/>
<feColorMatrix type="matrix" values="0 0 0 0 0 0 0 0 0 0 0 0 0 0 0 0 0 0 0.25 0"/>
<feBlend mode="normal" in2="BackgroundImageFix" result="effect1_dropShadow"/>
<feBlend mode="normal" in="SourceGraphic" in2="effect1_dropShadow" result="shape"/>
</filter>
</defs>
</svg>
