<svg width="209" height="61" viewBox="0 0 209 61" fill="none" xmlns="http://www.w3.org/2000/svg">
<path d="M61.7031 59H48.8906V41.0703C48.8906 37.9453 48.5651 35.8099 47.9141 34.6641C46.9505 32.9714 45.5052 32.125 43.5781 32.125C41.4427 32.125 39.8021 33.0495 38.6562 34.8984C37.849 36.2005 37.4453 38.2578 37.4453 41.0703V59H24.6328V41.0703C24.6328 37.9453 24.3724 35.9141 23.8516 34.9766C22.8099 33.1016 21.2083 32.1641 19.0469 32.1641C17.0417 32.1641 15.4792 32.9714 14.3594 34.5859C13.9427 35.1589 13.6432 35.9531 13.4609 36.9688C13.2786 37.9583 13.1875 39.3255 13.1875 41.0703V59H0.375V22.75H13.1875V27.2031C14.6979 25.7448 16.0781 24.6771 17.3281 24C19.5938 22.776 22.1198 22.1641 24.9062 22.1641C28.474 22.1641 31.4427 23.0885 33.8125 24.9375C35.0104 25.875 36.1562 27.2031 37.25 28.9219C38.2396 27.3073 39.3464 26.0312 40.5703 25.0938C43.1484 23.1146 46.0911 22.125 49.3984 22.125C52.1068 22.125 54.5156 22.776 56.625 24.0781C58.8906 25.5104 60.375 27.4505 61.0781 29.8984C61.4948 31.3828 61.7031 33.2318 61.7031 35.4453V59ZM111.391 59H98.5781V54.9766C97.3542 56.513 96.1172 57.6328 94.8672 58.3359C92.6797 59.5599 90.1927 60.1719 87.4062 60.1719C82.901 60.1719 78.8906 58.6224 75.375 55.5234C71.1823 51.8255 69.0859 46.9297 69.0859 40.8359C69.0859 34.638 71.2344 29.6901 75.5312 25.9922C78.9427 23.0495 82.862 21.5781 87.2891 21.5781C89.8672 21.5781 92.2891 22.125 94.5547 23.2188C95.8568 23.8438 97.1979 24.8724 98.5781 26.3047V22.75H111.391V59ZM98.9688 40.875C98.9688 38.5833 98.1615 36.6432 96.5469 35.0547C94.9323 33.4401 92.9792 32.6328 90.6875 32.6328C88.1354 32.6328 86.0391 33.5964 84.3984 35.5234C83.0703 37.0859 82.4062 38.8698 82.4062 40.875C82.4062 42.8802 83.0703 44.6641 84.3984 46.2266C86.013 48.1536 88.1094 49.1172 90.6875 49.1172C93.0052 49.1172 94.9583 48.3229 96.5469 46.7344C98.1615 45.1458 98.9688 43.1927 98.9688 40.875ZM162.445 40.8359C162.445 46.9297 160.349 51.8255 156.156 55.5234C152.641 58.6224 148.63 60.1719 144.125 60.1719C141.339 60.1719 138.852 59.5599 136.664 58.3359C135.336 57.6068 134.099 56.487 132.953 54.9766V59H120.141V0.328125H132.953V26.3047C134.333 24.8724 135.674 23.8438 136.977 23.2188C139.242 22.125 141.664 21.5781 144.242 21.5781C148.669 21.5781 152.589 23.0495 156 25.9922C160.297 29.6901 162.445 34.638 162.445 40.8359ZM149.125 40.875C149.125 38.8698 148.461 37.0859 147.133 35.5234C145.492 33.5964 143.396 32.6328 140.844 32.6328C138.552 32.6328 136.599 33.4401 134.984 35.0547C133.37 36.6432 132.562 38.5833 132.562 40.875C132.562 43.1667 133.37 45.1198 134.984 46.7344C136.599 48.3229 138.552 49.1172 140.844 49.1172C143.422 49.1172 145.518 48.1536 147.133 46.2266C148.461 44.638 149.125 42.8542 149.125 40.875ZM208.227 43.2188H181.273C181.273 48.6615 183.904 51.3828 189.164 51.3828C191.846 51.3828 193.904 50.237 195.336 47.9453H207.719C206.729 51.2266 205.271 53.7656 203.344 55.5625C199.854 58.8177 195.18 60.4453 189.32 60.4453C181.872 60.4453 176.273 58.1797 172.523 53.6484C169.711 50.263 168.305 46.1354 168.305 41.2656C168.305 35.4844 170.062 30.7839 173.578 27.1641C177.094 23.5443 182.055 21.7344 188.461 21.7344C196.352 21.7344 201.99 24.599 205.375 30.3281C207.276 33.5573 208.227 37.3073 208.227 41.5781V43.2188ZM196.273 35.875C195.362 31.8646 192.927 29.8594 188.969 29.8594C186.781 29.8594 185.01 30.4974 183.656 31.7734C182.589 32.7891 181.911 34.1562 181.625 35.875H196.273Z" fill="#3C6FF3"/>
</svg>
