<svg width="520" height="167" viewBox="0 0 520 167" fill="none" xmlns="http://www.w3.org/2000/svg">
<g filter="url(#filter0_d_231_2)">
<mask id="path-1-inside-1_231_2" fill="white">
<path d="M57.4931 113.598H18.8812V98.8737H24.8139V66.8154H16.9036V78.0026H4V52.0906H72.1765V78.0026H59.2729V66.8154H51.4121V98.8737H57.4931V113.598Z"/>
<path d="M98.7253 88.7919H112.717C112.783 87.9076 112.815 87.4064 112.815 87.2885C112.815 84.9597 112.156 83.0288 110.838 81.4959C109.52 79.9925 107.773 79.2407 105.597 79.2407C103.356 79.2407 101.642 80.0662 100.456 81.717C99.2691 83.3973 98.6759 85.4608 98.6759 87.9076C98.6759 88.2318 98.6924 88.5266 98.7253 88.7919ZM114.546 100.023L135.063 102.279C134.14 104.195 132.855 105.919 131.207 107.452C129.559 108.956 127.548 110.267 125.175 111.388C120.396 113.687 114.678 114.837 108.02 114.837C96.8466 114.837 88.442 112.758 82.8059 108.602C77.1699 104.475 74.3518 99.0653 74.3518 92.3736C74.3518 85.8293 77.1369 80.3757 82.7071 76.0128C88.2113 71.6499 95.6766 69.4685 105.103 69.4685C114.167 69.4685 121.55 71.532 127.252 75.659C132.855 79.7566 135.838 85.9914 136.2 94.3634H98.4287C98.5276 101.32 101.428 104.799 107.13 104.799C110.558 104.799 113.03 103.207 114.546 100.023Z"/>
<path d="M188.309 95.9995L206.849 99.7139C205.3 104.489 201.971 108.204 196.862 110.857C191.687 113.51 185.293 114.837 177.68 114.837C167.594 114.837 159.651 112.803 153.85 108.734C148.049 104.666 145.149 99.2127 145.149 92.3736C145.149 85.7998 147.851 80.4052 153.257 76.1897C158.629 72.0037 165.369 69.9107 173.477 69.9107C180.333 69.9107 185.623 71.134 189.347 73.5808V70.7066H204.525V89.013H189.347C187.469 84.1195 184.288 81.6728 179.805 81.6728C176.773 81.6728 174.433 82.7193 172.785 84.8123C171.137 86.9642 170.313 89.5731 170.313 92.6389C170.313 95.97 171.203 98.5937 172.983 100.51C174.73 102.426 177.004 103.384 179.805 103.384C184.42 103.384 187.254 100.923 188.309 95.9995Z"/>
<path d="M251.789 113.598H213.82V100.112H219.999V84.1932H213.82V70.7066H244.867V76.1455C250.965 71.9889 257.507 69.9107 264.495 69.9107C270.625 69.9107 275.239 71.4288 278.338 74.4651C281.403 77.5015 282.935 82.3802 282.935 89.1014V100.112H288.621V113.598H258.068V94.5403C258.068 90.3838 257.672 87.6422 256.881 86.3157C256.024 85.0186 254.393 84.3701 251.987 84.3701C249.778 84.3701 247.405 85.1218 244.867 86.6252V100.112H251.789V113.598Z"/>
<path d="M329.062 113.598H295.097V100.112H300.041V84.1932H295.097V70.7066H324.909V100.112H329.062V113.598ZM297.965 58.5907C297.965 56.2619 299.3 54.39 301.969 52.975C304.606 51.56 307.869 50.8525 311.758 50.8525C315.746 50.8525 318.96 51.5895 321.399 53.0634C323.805 54.5669 325.008 56.3946 325.008 58.5465C325.008 60.8754 323.756 62.7178 321.251 64.0738C318.713 65.4593 315.516 66.1521 311.66 66.1521C307.737 66.1521 304.474 65.5183 301.871 64.2507C299.267 63.0126 297.965 61.1259 297.965 58.5907Z"/>
<path d="M375.288 97.9451V111.122C373.673 112.095 371.333 112.95 368.267 113.687C365.037 114.453 361.939 114.837 358.973 114.837C355.248 114.837 352.051 114.291 349.382 113.2C346.646 112.08 344.586 110.577 343.202 108.69C342.444 107.599 341.883 106.612 341.521 105.728C341.158 104.814 340.895 103.797 340.73 102.677C340.499 100.731 340.384 96.9723 340.384 91.4008V84.1932H334.253V70.7066H340.384V64.118L365.252 53.5498V70.7066H375.288V84.1932H365.252V92.5063C365.252 95.2183 365.532 97.0313 366.092 97.9451C366.619 98.859 367.74 99.3159 369.454 99.3159C371.069 99.3159 373.013 98.859 375.288 97.9451Z"/>
<path d="M407.819 88.7919H421.81C421.876 87.9076 421.909 87.4064 421.909 87.2885C421.909 84.9597 421.25 83.0288 419.931 81.4959C418.613 79.9925 416.866 79.2407 414.691 79.2407C412.449 79.2407 410.735 80.0662 409.549 81.717C408.362 83.3973 407.769 85.4608 407.769 87.9076C407.769 88.2318 407.786 88.5266 407.819 88.7919ZM423.639 100.023L444.156 102.279C443.233 104.195 441.948 105.919 440.3 107.452C438.652 108.956 436.642 110.267 434.269 111.388C429.489 113.687 423.771 114.837 417.113 114.837C405.94 114.837 397.535 112.758 391.899 108.602C386.263 104.475 383.445 99.0653 383.445 92.3736C383.445 85.8293 386.23 80.3757 391.8 76.0128C397.305 71.6499 404.77 69.4685 414.196 69.4685C423.26 69.4685 430.643 71.532 436.345 75.659C441.948 79.7566 444.931 85.9914 445.293 94.3634H407.522C407.621 101.32 410.521 104.799 416.223 104.799C419.651 104.799 422.123 103.207 423.639 100.023Z"/>
<path d="M497.402 95.9995L515.942 99.7139C514.393 104.489 511.064 108.204 505.955 110.857C500.781 113.51 494.386 114.837 486.773 114.837C476.687 114.837 468.744 112.803 462.943 108.734C457.142 104.666 454.242 99.2127 454.242 92.3736C454.242 85.7998 456.945 80.4052 462.35 76.1897C467.722 72.0037 474.462 69.9107 482.57 69.9107C489.426 69.9107 494.716 71.134 498.44 73.5808V70.7066H513.618V89.013H498.44C496.562 84.1195 493.381 81.6728 488.899 81.6728C485.866 81.6728 483.526 82.7193 481.878 84.8123C480.23 86.9642 479.406 89.5731 479.406 92.6389C479.406 95.97 480.296 98.5937 482.076 100.51C483.823 102.426 486.097 103.384 488.899 103.384C493.513 103.384 496.348 100.923 497.402 95.9995Z"/>
</mask>
<path d="M57.4931 113.598H18.8812V98.8737H24.8139V66.8154H16.9036V78.0026H4V52.0906H72.1765V78.0026H59.2729V66.8154H51.4121V98.8737H57.4931V113.598Z" fill="#FF0000"/>
<path d="M98.7253 88.7919H112.717C112.783 87.9076 112.815 87.4064 112.815 87.2885C112.815 84.9597 112.156 83.0288 110.838 81.4959C109.52 79.9925 107.773 79.2407 105.597 79.2407C103.356 79.2407 101.642 80.0662 100.456 81.717C99.2691 83.3973 98.6759 85.4608 98.6759 87.9076C98.6759 88.2318 98.6924 88.5266 98.7253 88.7919ZM114.546 100.023L135.063 102.279C134.14 104.195 132.855 105.919 131.207 107.452C129.559 108.956 127.548 110.267 125.175 111.388C120.396 113.687 114.678 114.837 108.02 114.837C96.8466 114.837 88.442 112.758 82.8059 108.602C77.1699 104.475 74.3518 99.0653 74.3518 92.3736C74.3518 85.8293 77.1369 80.3757 82.7071 76.0128C88.2113 71.6499 95.6766 69.4685 105.103 69.4685C114.167 69.4685 121.55 71.532 127.252 75.659C132.855 79.7566 135.838 85.9914 136.2 94.3634H98.4287C98.5276 101.32 101.428 104.799 107.13 104.799C110.558 104.799 113.03 103.207 114.546 100.023Z" fill="#FF0000"/>
<path d="M188.309 95.9995L206.849 99.7139C205.3 104.489 201.971 108.204 196.862 110.857C191.687 113.51 185.293 114.837 177.68 114.837C167.594 114.837 159.651 112.803 153.85 108.734C148.049 104.666 145.149 99.2127 145.149 92.3736C145.149 85.7998 147.851 80.4052 153.257 76.1897C158.629 72.0037 165.369 69.9107 173.477 69.9107C180.333 69.9107 185.623 71.134 189.347 73.5808V70.7066H204.525V89.013H189.347C187.469 84.1195 184.288 81.6728 179.805 81.6728C176.773 81.6728 174.433 82.7193 172.785 84.8123C171.137 86.9642 170.313 89.5731 170.313 92.6389C170.313 95.97 171.203 98.5937 172.983 100.51C174.73 102.426 177.004 103.384 179.805 103.384C184.42 103.384 187.254 100.923 188.309 95.9995Z" fill="#FF0000"/>
<path d="M251.789 113.598H213.82V100.112H219.999V84.1932H213.82V70.7066H244.867V76.1455C250.965 71.9889 257.507 69.9107 264.495 69.9107C270.625 69.9107 275.239 71.4288 278.338 74.4651C281.403 77.5015 282.935 82.3802 282.935 89.1014V100.112H288.621V113.598H258.068V94.5403C258.068 90.3838 257.672 87.6422 256.881 86.3157C256.024 85.0186 254.393 84.3701 251.987 84.3701C249.778 84.3701 247.405 85.1218 244.867 86.6252V100.112H251.789V113.598Z" fill="#FF0000"/>
<path d="M329.062 113.598H295.097V100.112H300.041V84.1932H295.097V70.7066H324.909V100.112H329.062V113.598ZM297.965 58.5907C297.965 56.2619 299.3 54.39 301.969 52.975C304.606 51.56 307.869 50.8525 311.758 50.8525C315.746 50.8525 318.96 51.5895 321.399 53.0634C323.805 54.5669 325.008 56.3946 325.008 58.5465C325.008 60.8754 323.756 62.7178 321.251 64.0738C318.713 65.4593 315.516 66.1521 311.66 66.1521C307.737 66.1521 304.474 65.5183 301.871 64.2507C299.267 63.0126 297.965 61.1259 297.965 58.5907Z" fill="#FF0000"/>
<path d="M375.288 97.9451V111.122C373.673 112.095 371.333 112.95 368.267 113.687C365.037 114.453 361.939 114.837 358.973 114.837C355.248 114.837 352.051 114.291 349.382 113.2C346.646 112.08 344.586 110.577 343.202 108.69C342.444 107.599 341.883 106.612 341.521 105.728C341.158 104.814 340.895 103.797 340.73 102.677C340.499 100.731 340.384 96.9723 340.384 91.4008V84.1932H334.253V70.7066H340.384V64.118L365.252 53.5498V70.7066H375.288V84.1932H365.252V92.5063C365.252 95.2183 365.532 97.0313 366.092 97.9451C366.619 98.859 367.74 99.3159 369.454 99.3159C371.069 99.3159 373.013 98.859 375.288 97.9451Z" fill="#FF0000"/>
<path d="M407.819 88.7919H421.81C421.876 87.9076 421.909 87.4064 421.909 87.2885C421.909 84.9597 421.25 83.0288 419.931 81.4959C418.613 79.9925 416.866 79.2407 414.691 79.2407C412.449 79.2407 410.735 80.0662 409.549 81.717C408.362 83.3973 407.769 85.4608 407.769 87.9076C407.769 88.2318 407.786 88.5266 407.819 88.7919ZM423.639 100.023L444.156 102.279C443.233 104.195 441.948 105.919 440.3 107.452C438.652 108.956 436.642 110.267 434.269 111.388C429.489 113.687 423.771 114.837 417.113 114.837C405.94 114.837 397.535 112.758 391.899 108.602C386.263 104.475 383.445 99.0653 383.445 92.3736C383.445 85.8293 386.23 80.3757 391.8 76.0128C397.305 71.6499 404.77 69.4685 414.196 69.4685C423.26 69.4685 430.643 71.532 436.345 75.659C441.948 79.7566 444.931 85.9914 445.293 94.3634H407.522C407.621 101.32 410.521 104.799 416.223 104.799C419.651 104.799 422.123 103.207 423.639 100.023Z" fill="#FF0000"/>
<path d="M497.402 95.9995L515.942 99.7139C514.393 104.489 511.064 108.204 505.955 110.857C500.781 113.51 494.386 114.837 486.773 114.837C476.687 114.837 468.744 112.803 462.943 108.734C457.142 104.666 454.242 99.2127 454.242 92.3736C454.242 85.7998 456.945 80.4052 462.35 76.1897C467.722 72.0037 474.462 69.9107 482.57 69.9107C489.426 69.9107 494.716 71.134 498.44 73.5808V70.7066H513.618V89.013H498.44C496.562 84.1195 493.381 81.6728 488.899 81.6728C485.866 81.6728 483.526 82.7193 481.878 84.8123C480.23 86.9642 479.406 89.5731 479.406 92.6389C479.406 95.97 480.296 98.5937 482.076 100.51C483.823 102.426 486.097 103.384 488.899 103.384C493.513 103.384 496.348 100.923 497.402 95.9995Z" fill="#FF0000"/>
<path d="M57.4931 113.598H18.8812V98.8737H24.8139V66.8154H16.9036V78.0026H4V52.0906H72.1765V78.0026H59.2729V66.8154H51.4121V98.8737H57.4931V113.598Z" stroke="black" stroke-width="4" mask="url(#path-1-inside-1_231_2)"/>
<path d="M98.7253 88.7919H112.717C112.783 87.9076 112.815 87.4064 112.815 87.2885C112.815 84.9597 112.156 83.0288 110.838 81.4959C109.52 79.9925 107.773 79.2407 105.597 79.2407C103.356 79.2407 101.642 80.0662 100.456 81.717C99.2691 83.3973 98.6759 85.4608 98.6759 87.9076C98.6759 88.2318 98.6924 88.5266 98.7253 88.7919ZM114.546 100.023L135.063 102.279C134.14 104.195 132.855 105.919 131.207 107.452C129.559 108.956 127.548 110.267 125.175 111.388C120.396 113.687 114.678 114.837 108.02 114.837C96.8466 114.837 88.442 112.758 82.8059 108.602C77.1699 104.475 74.3518 99.0653 74.3518 92.3736C74.3518 85.8293 77.1369 80.3757 82.7071 76.0128C88.2113 71.6499 95.6766 69.4685 105.103 69.4685C114.167 69.4685 121.55 71.532 127.252 75.659C132.855 79.7566 135.838 85.9914 136.2 94.3634H98.4287C98.5276 101.32 101.428 104.799 107.13 104.799C110.558 104.799 113.03 103.207 114.546 100.023Z" stroke="black" stroke-width="4" mask="url(#path-1-inside-1_231_2)"/>
<path d="M188.309 95.9995L206.849 99.7139C205.3 104.489 201.971 108.204 196.862 110.857C191.687 113.51 185.293 114.837 177.68 114.837C167.594 114.837 159.651 112.803 153.85 108.734C148.049 104.666 145.149 99.2127 145.149 92.3736C145.149 85.7998 147.851 80.4052 153.257 76.1897C158.629 72.0037 165.369 69.9107 173.477 69.9107C180.333 69.9107 185.623 71.134 189.347 73.5808V70.7066H204.525V89.013H189.347C187.469 84.1195 184.288 81.6728 179.805 81.6728C176.773 81.6728 174.433 82.7193 172.785 84.8123C171.137 86.9642 170.313 89.5731 170.313 92.6389C170.313 95.97 171.203 98.5937 172.983 100.51C174.73 102.426 177.004 103.384 179.805 103.384C184.42 103.384 187.254 100.923 188.309 95.9995Z" stroke="black" stroke-width="4" mask="url(#path-1-inside-1_231_2)"/>
<path d="M251.789 113.598H213.82V100.112H219.999V84.1932H213.82V70.7066H244.867V76.1455C250.965 71.9889 257.507 69.9107 264.495 69.9107C270.625 69.9107 275.239 71.4288 278.338 74.4651C281.403 77.5015 282.935 82.3802 282.935 89.1014V100.112H288.621V113.598H258.068V94.5403C258.068 90.3838 257.672 87.6422 256.881 86.3157C256.024 85.0186 254.393 84.3701 251.987 84.3701C249.778 84.3701 247.405 85.1218 244.867 86.6252V100.112H251.789V113.598Z" stroke="black" stroke-width="4" mask="url(#path-1-inside-1_231_2)"/>
<path d="M329.062 113.598H295.097V100.112H300.041V84.1932H295.097V70.7066H324.909V100.112H329.062V113.598ZM297.965 58.5907C297.965 56.2619 299.3 54.39 301.969 52.975C304.606 51.56 307.869 50.8525 311.758 50.8525C315.746 50.8525 318.96 51.5895 321.399 53.0634C323.805 54.5669 325.008 56.3946 325.008 58.5465C325.008 60.8754 323.756 62.7178 321.251 64.0738C318.713 65.4593 315.516 66.1521 311.66 66.1521C307.737 66.1521 304.474 65.5183 301.871 64.2507C299.267 63.0126 297.965 61.1259 297.965 58.5907Z" stroke="black" stroke-width="4" mask="url(#path-1-inside-1_231_2)"/>
<path d="M375.288 97.9451V111.122C373.673 112.095 371.333 112.95 368.267 113.687C365.037 114.453 361.939 114.837 358.973 114.837C355.248 114.837 352.051 114.291 349.382 113.2C346.646 112.08 344.586 110.577 343.202 108.69C342.444 107.599 341.883 106.612 341.521 105.728C341.158 104.814 340.895 103.797 340.73 102.677C340.499 100.731 340.384 96.9723 340.384 91.4008V84.1932H334.253V70.7066H340.384V64.118L365.252 53.5498V70.7066H375.288V84.1932H365.252V92.5063C365.252 95.2183 365.532 97.0313 366.092 97.9451C366.619 98.859 367.74 99.3159 369.454 99.3159C371.069 99.3159 373.013 98.859 375.288 97.9451Z" stroke="black" stroke-width="4" mask="url(#path-1-inside-1_231_2)"/>
<path d="M407.819 88.7919H421.81C421.876 87.9076 421.909 87.4064 421.909 87.2885C421.909 84.9597 421.25 83.0288 419.931 81.4959C418.613 79.9925 416.866 79.2407 414.691 79.2407C412.449 79.2407 410.735 80.0662 409.549 81.717C408.362 83.3973 407.769 85.4608 407.769 87.9076C407.769 88.2318 407.786 88.5266 407.819 88.7919ZM423.639 100.023L444.156 102.279C443.233 104.195 441.948 105.919 440.3 107.452C438.652 108.956 436.642 110.267 434.269 111.388C429.489 113.687 423.771 114.837 417.113 114.837C405.94 114.837 397.535 112.758 391.899 108.602C386.263 104.475 383.445 99.0653 383.445 92.3736C383.445 85.8293 386.23 80.3757 391.8 76.0128C397.305 71.6499 404.77 69.4685 414.196 69.4685C423.26 69.4685 430.643 71.532 436.345 75.659C441.948 79.7566 444.931 85.9914 445.293 94.3634H407.522C407.621 101.32 410.521 104.799 416.223 104.799C419.651 104.799 422.123 103.207 423.639 100.023Z" stroke="black" stroke-width="4" mask="url(#path-1-inside-1_231_2)"/>
<path d="M497.402 95.9995L515.942 99.7139C514.393 104.489 511.064 108.204 505.955 110.857C500.781 113.51 494.386 114.837 486.773 114.837C476.687 114.837 468.744 112.803 462.943 108.734C457.142 104.666 454.242 99.2127 454.242 92.3736C454.242 85.7998 456.945 80.4052 462.35 76.1897C467.722 72.0037 474.462 69.9107 482.57 69.9107C489.426 69.9107 494.716 71.134 498.44 73.5808V70.7066H513.618V89.013H498.44C496.562 84.1195 493.381 81.6728 488.899 81.6728C485.866 81.6728 483.526 82.7193 481.878 84.8123C480.23 86.9642 479.406 89.5731 479.406 92.6389C479.406 95.97 480.296 98.5937 482.076 100.51C483.823 102.426 486.097 103.384 488.899 103.384C493.513 103.384 496.348 100.923 497.402 95.9995Z" stroke="black" stroke-width="4" mask="url(#path-1-inside-1_231_2)"/>
</g>
<g filter="url(#filter1_d_231_2)">
<path d="M507.113 145.004C507.113 146.199 506.773 147.113 506.094 147.746C505.422 148.371 504.469 148.684 503.234 148.684C502.008 148.684 501.023 148.273 500.281 147.453C499.547 146.625 499.18 145.5 499.18 144.078V142.789C499.18 141.414 499.551 140.316 500.293 139.496C501.043 138.668 502.023 138.254 503.234 138.254C504.484 138.254 505.445 138.574 506.117 139.215C506.789 139.855 507.125 140.758 507.125 141.922H505.414C505.414 141.148 505.227 140.598 504.852 140.27C504.484 139.934 503.945 139.766 503.234 139.766C502.5 139.766 501.922 140.035 501.5 140.574C501.078 141.113 500.867 141.863 500.867 142.824V144.148C500.867 145.086 501.078 145.824 501.5 146.363C501.922 146.902 502.5 147.172 503.234 147.172C503.953 147.172 504.492 147.008 504.852 146.68C505.219 146.352 505.402 145.793 505.402 145.004H507.113ZM496.414 143.457C496.414 144.801 496.727 146.047 497.352 147.195C497.977 148.336 498.824 149.23 499.895 149.879C500.973 150.527 502.137 150.852 503.387 150.852C504.637 150.852 505.797 150.527 506.867 149.879C507.938 149.23 508.785 148.336 509.41 147.195C510.035 146.047 510.348 144.801 510.348 143.457C510.348 142.129 510.039 140.898 509.422 139.766C508.805 138.633 507.957 137.742 506.879 137.094C505.809 136.438 504.645 136.109 503.387 136.109C502.137 136.109 500.973 136.434 499.895 137.082C498.816 137.723 497.965 138.613 497.34 139.754C496.723 140.895 496.414 142.129 496.414 143.457ZM495.066 143.457C495.066 141.879 495.43 140.414 496.156 139.062C496.891 137.711 497.902 136.648 499.191 135.875C500.488 135.094 501.887 134.703 503.387 134.703C504.887 134.703 506.281 135.094 507.57 135.875C508.859 136.648 509.867 137.711 510.594 139.062C511.328 140.414 511.695 141.879 511.695 143.457C511.695 144.996 511.344 146.438 510.641 147.781C509.938 149.125 508.938 150.207 507.641 151.027C506.352 151.84 504.934 152.246 503.387 152.246C501.848 152.246 500.43 151.844 499.133 151.039C497.844 150.227 496.844 149.148 496.133 147.805C495.422 146.461 495.066 145.012 495.066 143.457Z" fill="#FF0000"/>
</g>
<g filter="url(#filter2_d_231_2)">
<path d="M515.345 56.4553L197.907 0L15.3765 40.5772L197.907 20.0681L515.345 56.4553Z" fill="#FFD600"/>
<path d="M197.964 19.5713L197.908 19.5649L197.851 19.5712L24.6117 39.0364L197.918 0.509784L499.351 54.1187L197.964 19.5713Z" stroke="#FF0000"/>
</g>
<g filter="url(#filter3_d_231_2)">
<path d="M242.74 127.987H515.385L242.74 139.766L146.206 158.089L242.74 127.987Z" fill="#FAC406"/>
<path d="M492.228 128.487L242.718 139.267L242.682 139.268L242.646 139.275L154.669 155.974L242.816 128.487H492.228Z" stroke="#FF0000"/>
</g>
<defs>
<filter id="filter0_d_231_2" x="0" y="50.8525" width="519.942" height="71.9841" filterUnits="userSpaceOnUse" color-interpolation-filters="sRGB">
<feFlood flood-opacity="0" result="BackgroundImageFix"/>
<feColorMatrix in="SourceAlpha" type="matrix" values="0 0 0 0 0 0 0 0 0 0 0 0 0 0 0 0 0 0 127 0" result="hardAlpha"/>
<feOffset dy="4"/>
<feGaussianBlur stdDeviation="2"/>
<feComposite in2="hardAlpha" operator="out"/>
<feColorMatrix type="matrix" values="0 0 0 0 0 0 0 0 0 0 0 0 0 0 0 0 0 0 0.25 0"/>
<feBlend mode="normal" in2="BackgroundImageFix" result="effect1_dropShadow_231_2"/>
<feBlend mode="normal" in="SourceGraphic" in2="effect1_dropShadow_231_2" result="shape"/>
</filter>
<filter id="filter1_d_231_2" x="491.066" y="134.703" width="24.6289" height="25.543" filterUnits="userSpaceOnUse" color-interpolation-filters="sRGB">
<feFlood flood-opacity="0" result="BackgroundImageFix"/>
<feColorMatrix in="SourceAlpha" type="matrix" values="0 0 0 0 0 0 0 0 0 0 0 0 0 0 0 0 0 0 127 0" result="hardAlpha"/>
<feOffset dy="4"/>
<feGaussianBlur stdDeviation="2"/>
<feComposite in2="hardAlpha" operator="out"/>
<feColorMatrix type="matrix" values="0 0 0 0 0 0 0 0 0 0 0 0 0 0 0 0 0 0 0.25 0"/>
<feBlend mode="normal" in2="BackgroundImageFix" result="effect1_dropShadow_231_2"/>
<feBlend mode="normal" in="SourceGraphic" in2="effect1_dropShadow_231_2" result="shape"/>
</filter>
<filter id="filter2_d_231_2" x="11.3765" y="0" width="507.969" height="64.4553" filterUnits="userSpaceOnUse" color-interpolation-filters="sRGB">
<feFlood flood-opacity="0" result="BackgroundImageFix"/>
<feColorMatrix in="SourceAlpha" type="matrix" values="0 0 0 0 0 0 0 0 0 0 0 0 0 0 0 0 0 0 127 0" result="hardAlpha"/>
<feOffset dy="4"/>
<feGaussianBlur stdDeviation="2"/>
<feComposite in2="hardAlpha" operator="out"/>
<feColorMatrix type="matrix" values="0 0 0 0 0 0 0 0 0 0 0 0 0 0 0 0 0 0 0.25 0"/>
<feBlend mode="normal" in2="BackgroundImageFix" result="effect1_dropShadow_231_2"/>
<feBlend mode="normal" in="SourceGraphic" in2="effect1_dropShadow_231_2" result="shape"/>
</filter>
<filter id="filter3_d_231_2" x="142.206" y="127.987" width="377.179" height="38.1021" filterUnits="userSpaceOnUse" color-interpolation-filters="sRGB">
<feFlood flood-opacity="0" result="BackgroundImageFix"/>
<feColorMatrix in="SourceAlpha" type="matrix" values="0 0 0 0 0 0 0 0 0 0 0 0 0 0 0 0 0 0 127 0" result="hardAlpha"/>
<feOffset dy="4"/>
<feGaussianBlur stdDeviation="2"/>
<feComposite in2="hardAlpha" operator="out"/>
<feColorMatrix type="matrix" values="0 0 0 0 0 0 0 0 0 0 0 0 0 0 0 0 0 0 0.25 0"/>
<feBlend mode="normal" in2="BackgroundImageFix" result="effect1_dropShadow_231_2"/>
<feBlend mode="normal" in="SourceGraphic" in2="effect1_dropShadow_231_2" result="shape"/>
</filter>
</defs>
</svg>
